<svg xmlns="http://www.w3.org/2000/svg" viewBox="0 0 1125 375">
  <defs>
    <style>
      .cls-1 {
        fill: #5b9bd4;
      }

      .cls-2 {
        fill: #dbdbdb;
      }

      .cls-3 {
        fill: #c8d96d;
      }

      .cls-4 {
        fill: #3956a2;
      }

      .cls-5 {
        fill: #e84330;
      }

      .cls-6 {
        fill: #ffd34a;
      }

      .cls-7 {
        fill: #f8aa33;
      }
    </style>
  </defs>
  <g id="Bckgnds">
    <rect id="_3" data-name="3" class="cls-1" y="93.75" width="1125" height="93.75"/>
    <rect id="_2" data-name="2" class="cls-2" y="187.5" width="1125" height="93.75"/>
    <path id="_1" data-name="1" class="cls-3" d="M0,0H750a0,0,0,0,1,0,0V0a93.75,93.75,0,0,1-93.75,93.75H0a0,0,0,0,1,0,0V0A0,0,0,0,1,0,0Z"/>
  </g>
  <g id="Frgnds">
    <path id="_4-3" data-name="4-3" class="cls-4" d="M1125,281.25A93.7543,93.7543,0,0,1,1031.25,375H562.5a93.7543,93.7543,0,0,0,93.75-93.75Z"/>
    <path id="_4-2" data-name="4-2" class="cls-5" d="M468.75,281.25h187.5a0,0,0,0,1,0,0v0A93.75,93.75,0,0,1,562.5,375H375a0,0,0,0,1,0,0v0A93.75,93.75,0,0,1,468.75,281.25Z"/>
    <path id="_4-1" data-name="4-1" class="cls-6" d="M281.25,281.25A93.7458,93.7458,0,0,0,187.5,375a93.7458,93.7458,0,0,1-93.75-93.75Z"/>
    <path id="_3-3" data-name="3-3" class="cls-6" d="M843.75,187.5h187.5A93.75,93.75,0,0,1,1125,281.25v0a0,0,0,0,1,0,0H937.5a93.75,93.75,0,0,1-93.75-93.75v0A0,0,0,0,1,843.75,187.5Z"/>
    <path id="_3-2" data-name="3-2" class="cls-7" d="M656.25,281.25H468.75A93.7543,93.7543,0,0,0,562.5,187.5,93.7458,93.7458,0,0,1,656.25,281.25Z"/>
    <path id="_3-1" data-name="3-1" class="cls-4" d="M187.5,187.5H375a0,0,0,0,1,0,0v0a93.75,93.75,0,0,1-93.75,93.75H93.75a0,0,0,0,1,0,0v0A93.75,93.75,0,0,1,187.5,187.5Z"/>
    <path id="_2-3" data-name="2-3" class="cls-5" d="M937.5,93.75H1125a0,0,0,0,1,0,0v0a93.75,93.75,0,0,1-93.75,93.75H843.75a0,0,0,0,1,0,0v0A93.75,93.75,0,0,1,937.5,93.75Z"/>
    <path id="_2-2" data-name="2-2" class="cls-6" d="M656.25,93.75A93.7458,93.7458,0,0,0,562.5,187.5a93.7458,93.7458,0,0,1-93.75-93.75Z"/>
    <path id="_2-1" data-name="2-1" class="cls-6" d="M93.75,93.75h187.5A93.75,93.75,0,0,1,375,187.5v0a0,0,0,0,1,0,0H187.5A93.75,93.75,0,0,1,93.75,93.75v0A0,0,0,0,1,93.75,93.75Z"/>
    <path id="_1-2" data-name="1-2" class="cls-5" d="M1125,93.75H937.5a93.4232,93.4232,0,0,0,66.29-27.46A93.4232,93.4232,0,0,0,1031.25,0,93.7458,93.7458,0,0,1,1125,93.75Z"/>
    <path id="_1-1" data-name="1-1" class="cls-4" d="M562.5,0a93.7543,93.7543,0,0,0-93.75,93.75h-375A93.7543,93.7543,0,0,1,187.5,0Z"/>
  </g>
</svg>
